<svg width="24" height="24" viewBox="0 0 24 24" fill="none" xmlns="http://www.w3.org/2000/svg">
<path d="M4.08549 1.57953C3.95994 1.51673 3.81929 1.49043 3.67953 1.50362C3.53977 1.51681 3.40653 1.56896 3.29494 1.65413C3.18335 1.73931 3.09791 1.85409 3.04833 1.98542C2.99876 2.11675 2.98703 2.25936 3.01449 2.39703L5.11899 9.67203C5.15823 9.8076 5.23493 9.92935 5.34027 10.0233C5.44562 10.1172 5.57532 10.1795 5.71449 10.203L14.2495 11.6325C14.6515 11.712 14.6515 12.288 14.2495 12.3675L5.71449 13.797C5.57532 13.8205 5.44562 13.8828 5.34027 13.9768C5.23493 14.0707 5.15823 14.1925 5.11899 14.328L3.01449 21.603C2.98703 21.7407 2.99876 21.8833 3.04833 22.0146C3.09791 22.146 3.18335 22.2607 3.29494 22.3459C3.40653 22.4311 3.53977 22.4832 3.67953 22.4964C3.81929 22.5096 3.95994 22.4833 4.08549 22.4205L23.5855 12.6705C23.7099 12.6082 23.8145 12.5124 23.8876 12.394C23.9607 12.2756 23.9994 12.1392 23.9994 12C23.9994 11.8609 23.9607 11.7244 23.8876 11.606C23.8145 11.4876 23.7099 11.3919 23.5855 11.3295L4.08549 1.57953Z" fill="#B4B1B9"/>
</svg>
